<svg viewBox="0 0 1200 900" xmlns="http://www.w3.org/2000/svg" preserveAspectRatio="none">
<path d="M 0.0 587.3 L 10.0 593.8 L 20.0 600.1 L 30.0 605.8 L 40.0 611.1 L 50.0 615.8 L 60.0 620.0 L 70.0 623.4 L 80.0 626.2 L 90.0 628.2 L 100.0 629.5 L 110.0 630.0 L 120.0 629.7 L 130.0 628.7 L 140.0 627.0 L 150.0 624.5 L 160.0 621.3 L 170.0 617.4 L 180.0 612.9 L 190.0 607.8 L 200.0 602.2 L 210.0 596.1 L 220.0 589.7 L 230.0 582.9 L 240.0 575.8 L 250.0 568.6 L 260.0 561.3 L 270.0 554.0 L 280.0 546.7 L 290.0 539.6 L 300.0 532.7 L 310.0 526.2 L 320.0 519.9 L 330.0 514.2 L 340.0 508.9 L 350.0 504.2 L 360.0 500.0 L 370.0 496.6 L 380.0 493.8 L 390.0 491.8 L 400.0 490.5 L 410.0 490.0 L 420.0 490.3 L 430.0 491.3 L 440.0 493.0 L 450.0 495.5 L 460.0 498.7 L 470.0 502.6 L 480.0 507.1 L 490.0 512.2 L 500.0 517.8 L 510.0 523.9 L 520.0 530.3 L 530.0 537.1 L 540.0 544.2 L 550.0 551.4 L 560.0 558.7 L 570.0 566.0 L 580.0 573.3 L 590.0 580.4 L 600.0 587.3 L 610.0 593.8 L 620.0 600.1 L 630.0 605.8 L 640.0 611.1 L 650.0 615.8 L 660.0 620.0 L 670.0 623.4 L 680.0 626.2 L 690.0 628.2 L 700.0 629.5 L 710.0 630.0 L 720.0 629.7 L 730.0 628.7 L 740.0 627.0 L 750.0 624.5 L 760.0 621.3 L 770.0 617.4 L 780.0 612.9 L 790.0 607.8 L 800.0 602.2 L 810.0 596.1 L 820.0 589.7 L 830.0 582.9 L 840.0 575.8 L 850.0 568.6 L 860.0 561.3 L 870.0 554.0 L 880.0 546.7 L 890.0 539.6 L 900.0 532.7 L 910.0 526.2 L 920.0 519.9 L 930.0 514.2 L 940.0 508.9 L 950.0 504.2 L 960.0 500.0 L 970.0 496.6 L 980.0 493.8 L 990.0 491.8 L 1000.0 490.5 L 1010.0 490.0 L 1020.0 490.3 L 1030.0 491.3 L 1040.0 493.0 L 1050.0 495.5 L 1060.0 498.7 L 1070.0 502.6 L 1080.0 507.1 L 1090.0 512.2 L 1100.0 517.8 L 1110.0 523.9 L 1120.0 530.3 L 1130.0 537.1 L 1140.0 544.2 L 1150.0 551.4 L 1160.0 558.7 L 1170.0 566.0 L 1180.0 573.3 L 1190.0 580.4 L 1200.0 587.3 L 1200.0 587.3 L 1200 900 L 0 900 Z" fill="#2f7d8a" fill-opacity="0.10"/>
<path d="M 0.0 727.5 L 10.0 722.5 L 20.0 716.6 L 30.0 709.7 L 40.0 702.1 L 50.0 693.9 L 60.0 685.4 L 70.0 676.8 L 80.0 668.3 L 90.0 660.0 L 100.0 652.2 L 110.0 645.1 L 120.0 638.9 L 130.0 633.7 L 140.0 629.6 L 150.0 626.8 L 160.0 625.3 L 170.0 625.1 L 180.0 626.3 L 190.0 628.8 L 200.0 632.5 L 210.0 637.5 L 220.0 643.4 L 230.0 650.3 L 240.0 657.9 L 250.0 666.1 L 260.0 674.6 L 270.0 683.2 L 280.0 691.7 L 290.0 700.0 L 300.0 707.8 L 310.0 714.9 L 320.0 721.1 L 330.0 726.3 L 340.0 730.4 L 350.0 733.2 L 360.0 734.7 L 370.0 734.9 L 380.0 733.7 L 390.0 731.2 L 400.0 727.5 L 410.0 722.5 L 420.0 716.6 L 430.0 709.7 L 440.0 702.1 L 450.0 693.9 L 460.0 685.4 L 470.0 676.8 L 480.0 668.3 L 490.0 660.0 L 500.0 652.2 L 510.0 645.1 L 520.0 638.9 L 530.0 633.7 L 540.0 629.6 L 550.0 626.8 L 560.0 625.3 L 570.0 625.1 L 580.0 626.3 L 590.0 628.8 L 600.0 632.5 L 610.0 637.5 L 620.0 643.4 L 630.0 650.3 L 640.0 657.9 L 650.0 666.1 L 660.0 674.6 L 670.0 683.2 L 680.0 691.7 L 690.0 700.0 L 700.0 707.8 L 710.0 714.9 L 720.0 721.1 L 730.0 726.3 L 740.0 730.4 L 750.0 733.2 L 760.0 734.7 L 770.0 734.9 L 780.0 733.7 L 790.0 731.2 L 800.0 727.5 L 810.0 722.5 L 820.0 716.6 L 830.0 709.7 L 840.0 702.1 L 850.0 693.9 L 860.0 685.4 L 870.0 676.8 L 880.0 668.3 L 890.0 660.0 L 900.0 652.2 L 910.0 645.1 L 920.0 638.9 L 930.0 633.7 L 940.0 629.6 L 950.0 626.8 L 960.0 625.3 L 970.0 625.1 L 980.0 626.3 L 990.0 628.8 L 1000.0 632.5 L 1010.0 637.5 L 1020.0 643.4 L 1030.0 650.3 L 1040.0 657.9 L 1050.0 666.1 L 1060.0 674.6 L 1070.0 683.2 L 1080.0 691.7 L 1090.0 700.0 L 1100.0 707.8 L 1110.0 714.9 L 1120.0 721.1 L 1130.0 726.3 L 1140.0 730.4 L 1150.0 733.2 L 1160.0 734.7 L 1170.0 734.9 L 1180.0 733.7 L 1190.0 731.2 L 1200.0 727.5 L 1200.0 727.5 L 1200 900 L 0 900 Z" fill="#1b6473" fill-opacity="0.12"/>
<path d="M 0.0 745.9 L 10.0 743.1 L 20.0 740.6 L 30.0 738.5 L 40.0 736.9 L 50.0 735.8 L 60.0 735.2 L 70.0 735.0 L 80.0 735.4 L 90.0 736.2 L 100.0 737.5 L 110.0 739.3 L 120.0 741.5 L 130.0 744.1 L 140.0 747.2 L 150.0 750.6 L 160.0 754.3 L 170.0 758.3 L 180.0 762.5 L 190.0 767.0 L 200.0 771.6 L 210.0 776.2 L 220.0 780.9 L 230.0 785.6 L 240.0 790.3 L 250.0 794.8 L 260.0 799.1 L 270.0 803.3 L 280.0 807.2 L 290.0 810.8 L 300.0 814.1 L 310.0 816.9 L 320.0 819.4 L 330.0 821.5 L 340.0 823.1 L 350.0 824.2 L 360.0 824.8 L 370.0 825.0 L 380.0 824.6 L 390.0 823.8 L 400.0 822.5 L 410.0 820.7 L 420.0 818.5 L 430.0 815.9 L 440.0 812.8 L 450.0 809.4 L 460.0 805.7 L 470.0 801.7 L 480.0 797.5 L 490.0 793.0 L 500.0 788.4 L 510.0 783.8 L 520.0 779.1 L 530.0 774.4 L 540.0 769.7 L 550.0 765.2 L 560.0 760.9 L 570.0 756.7 L 580.0 752.8 L 590.0 749.2 L 600.0 745.9 L 610.0 743.1 L 620.0 740.6 L 630.0 738.5 L 640.0 736.9 L 650.0 735.8 L 660.0 735.2 L 670.0 735.0 L 680.0 735.4 L 690.0 736.2 L 700.0 737.5 L 710.0 739.3 L 720.0 741.5 L 730.0 744.1 L 740.0 747.2 L 750.0 750.6 L 760.0 754.3 L 770.0 758.3 L 780.0 762.5 L 790.0 767.0 L 800.0 771.6 L 810.0 776.2 L 820.0 780.9 L 830.0 785.6 L 840.0 790.3 L 850.0 794.8 L 860.0 799.1 L 870.0 803.3 L 880.0 807.2 L 890.0 810.8 L 900.0 814.1 L 910.0 816.9 L 920.0 819.4 L 930.0 821.5 L 940.0 823.1 L 950.0 824.2 L 960.0 824.8 L 970.0 825.0 L 980.0 824.6 L 990.0 823.8 L 1000.0 822.5 L 1010.0 820.7 L 1020.0 818.5 L 1030.0 815.9 L 1040.0 812.8 L 1050.0 809.4 L 1060.0 805.7 L 1070.0 801.7 L 1080.0 797.5 L 1090.0 793.0 L 1100.0 788.4 L 1110.0 783.8 L 1120.0 779.1 L 1130.0 774.4 L 1140.0 769.7 L 1150.0 765.2 L 1160.0 760.9 L 1170.0 756.7 L 1180.0 752.8 L 1190.0 749.2 L 1200.0 745.9 L 1200.0 745.9 L 1200 900 L 0 900 Z" fill="#13405a" fill-opacity="0.14"/>
<path d="M 0.0 150.0 L 10.0 156.3 L 20.0 162.5 L 30.0 168.5 L 40.0 174.4 L 50.0 180.0 L 60.0 185.3 L 70.0 190.1 L 80.0 194.6 L 90.0 198.5 L 100.0 202.0 L 110.0 204.8 L 120.0 207.1 L 130.0 208.7 L 140.0 209.7 L 150.0 210.0 L 160.0 209.7 L 170.0 208.7 L 180.0 207.1 L 190.0 204.8 L 200.0 202.0 L 210.0 198.5 L 220.0 194.6 L 230.0 190.1 L 240.0 185.3 L 250.0 180.0 L 260.0 174.4 L 270.0 168.5 L 280.0 162.5 L 290.0 156.3 L 300.0 150.0 L 310.0 143.7 L 320.0 137.5 L 330.0 131.5 L 340.0 125.6 L 350.0 120.0 L 360.0 114.7 L 370.0 109.9 L 380.0 105.4 L 390.0 101.5 L 400.0 98.0 L 410.0 95.2 L 420.0 92.9 L 430.0 91.3 L 440.0 90.3 L 450.0 90.0 L 460.0 90.3 L 470.0 91.3 L 480.0 92.9 L 490.0 95.2 L 500.0 98.0 L 510.0 101.5 L 520.0 105.4 L 530.0 109.9 L 540.0 114.7 L 550.0 120.0 L 560.0 125.6 L 570.0 131.5 L 580.0 137.5 L 590.0 143.7 L 600.0 150.0 L 610.0 156.3 L 620.0 162.5 L 630.0 168.5 L 640.0 174.4 L 650.0 180.0 L 660.0 185.3 L 670.0 190.1 L 680.0 194.6 L 690.0 198.5 L 700.0 202.0 L 710.0 204.8 L 720.0 207.1 L 730.0 208.7 L 740.0 209.7 L 750.0 210.0 L 760.0 209.7 L 770.0 208.7 L 780.0 207.1 L 790.0 204.8 L 800.0 202.0 L 810.0 198.5 L 820.0 194.6 L 830.0 190.1 L 840.0 185.3 L 850.0 180.0 L 860.0 174.4 L 870.0 168.5 L 880.0 162.5 L 890.0 156.3 L 900.0 150.0 L 910.0 143.7 L 920.0 137.5 L 930.0 131.5 L 940.0 125.6 L 950.0 120.0 L 960.0 114.7 L 970.0 109.9 L 980.0 105.4 L 990.0 101.5 L 1000.0 98.0 L 1010.0 95.2 L 1020.0 92.9 L 1030.0 91.3 L 1040.0 90.3 L 1050.0 90.0 L 1060.0 90.3 L 1070.0 91.3 L 1080.0 92.9 L 1090.0 95.2 L 1100.0 98.0 L 1110.0 101.5 L 1120.0 105.4 L 1130.0 109.9 L 1140.0 114.7 L 1150.0 120.0 L 1160.0 125.6 L 1170.0 131.5 L 1180.0 137.5 L 1190.0 143.7 L 1200.0 150.0 L 1200.0 150.0" fill="none" stroke="#9fe3ea" stroke-opacity="0.1" stroke-width="1.4"/>
<path d="M 0.0 324.6 L 10.0 328.2 L 20.0 329.9 L 30.0 329.6 L 40.0 327.4 L 50.0 323.2 L 60.0 317.3 L 70.0 309.7 L 80.0 300.6 L 90.0 290.3 L 100.0 279.0 L 110.0 267.0 L 120.0 254.5 L 130.0 242.0 L 140.0 229.6 L 150.0 217.8 L 160.0 206.7 L 170.0 196.7 L 180.0 188.0 L 190.0 180.9 L 200.0 175.4 L 210.0 171.8 L 220.0 170.1 L 230.0 170.4 L 240.0 172.6 L 250.0 176.8 L 260.0 182.7 L 270.0 190.3 L 280.0 199.4 L 290.0 209.7 L 300.0 221.0 L 310.0 233.0 L 320.0 245.5 L 330.0 258.0 L 340.0 270.4 L 350.0 282.2 L 360.0 293.3 L 370.0 303.3 L 380.0 312.0 L 390.0 319.1 L 400.0 324.6 L 410.0 328.2 L 420.0 329.9 L 430.0 329.6 L 440.0 327.4 L 450.0 323.2 L 460.0 317.3 L 470.0 309.7 L 480.0 300.6 L 490.0 290.3 L 500.0 279.0 L 510.0 267.0 L 520.0 254.5 L 530.0 242.0 L 540.0 229.6 L 550.0 217.8 L 560.0 206.7 L 570.0 196.7 L 580.0 188.0 L 590.0 180.9 L 600.0 175.4 L 610.0 171.8 L 620.0 170.1 L 630.0 170.4 L 640.0 172.6 L 650.0 176.8 L 660.0 182.7 L 670.0 190.3 L 680.0 199.4 L 690.0 209.7 L 700.0 221.0 L 710.0 233.0 L 720.0 245.5 L 730.0 258.0 L 740.0 270.4 L 750.0 282.2 L 760.0 293.3 L 770.0 303.3 L 780.0 312.0 L 790.0 319.1 L 800.0 324.6 L 810.0 328.2 L 820.0 329.9 L 830.0 329.6 L 840.0 327.4 L 850.0 323.2 L 860.0 317.3 L 870.0 309.7 L 880.0 300.6 L 890.0 290.3 L 900.0 279.0 L 910.0 267.0 L 920.0 254.5 L 930.0 242.0 L 940.0 229.6 L 950.0 217.8 L 960.0 206.7 L 970.0 196.7 L 980.0 188.0 L 990.0 180.9 L 1000.0 175.4 L 1010.0 171.8 L 1020.0 170.1 L 1030.0 170.4 L 1040.0 172.6 L 1050.0 176.8 L 1060.0 182.7 L 1070.0 190.3 L 1080.0 199.4 L 1090.0 209.7 L 1100.0 221.0 L 1110.0 233.0 L 1120.0 245.5 L 1130.0 258.0 L 1140.0 270.4 L 1150.0 282.2 L 1160.0 293.3 L 1170.0 303.3 L 1180.0 312.0 L 1190.0 319.1 L 1200.0 324.6 L 1200.0 324.6" fill="none" stroke="#bfe9ef" stroke-opacity="0.12" stroke-width="1.4"/>
<path d="M 0.0 367.8 L 10.0 362.0 L 20.0 356.3 L 30.0 350.6 L 40.0 344.9 L 50.0 339.5 L 60.0 334.3 L 70.0 329.3 L 80.0 324.7 L 90.0 320.5 L 100.0 316.7 L 110.0 313.4 L 120.0 310.6 L 130.0 308.4 L 140.0 306.7 L 150.0 305.6 L 160.0 305.0 L 170.0 305.1 L 180.0 305.8 L 190.0 307.1 L 200.0 309.0 L 210.0 311.4 L 220.0 314.3 L 230.0 317.8 L 240.0 321.7 L 250.0 326.1 L 260.0 330.8 L 270.0 335.8 L 280.0 341.1 L 290.0 346.6 L 300.0 352.2 L 310.0 358.0 L 320.0 363.7 L 330.0 369.4 L 340.0 375.1 L 350.0 380.5 L 360.0 385.7 L 370.0 390.7 L 380.0 395.3 L 390.0 399.5 L 400.0 403.3 L 410.0 406.6 L 420.0 409.4 L 430.0 411.6 L 440.0 413.3 L 450.0 414.4 L 460.0 415.0 L 470.0 414.9 L 480.0 414.2 L 490.0 412.9 L 500.0 411.0 L 510.0 408.6 L 520.0 405.7 L 530.0 402.2 L 540.0 398.3 L 550.0 393.9 L 560.0 389.2 L 570.0 384.2 L 580.0 378.9 L 590.0 373.4 L 600.0 367.8 L 610.0 362.0 L 620.0 356.3 L 630.0 350.6 L 640.0 344.9 L 650.0 339.5 L 660.0 334.3 L 670.0 329.3 L 680.0 324.7 L 690.0 320.5 L 700.0 316.7 L 710.0 313.4 L 720.0 310.6 L 730.0 308.4 L 740.0 306.7 L 750.0 305.6 L 760.0 305.0 L 770.0 305.1 L 780.0 305.8 L 790.0 307.1 L 800.0 309.0 L 810.0 311.4 L 820.0 314.3 L 830.0 317.8 L 840.0 321.7 L 850.0 326.1 L 860.0 330.8 L 870.0 335.8 L 880.0 341.1 L 890.0 346.6 L 900.0 352.2 L 910.0 358.0 L 920.0 363.7 L 930.0 369.4 L 940.0 375.1 L 950.0 380.5 L 960.0 385.7 L 970.0 390.7 L 980.0 395.3 L 990.0 399.5 L 1000.0 403.3 L 1010.0 406.6 L 1020.0 409.4 L 1030.0 411.6 L 1040.0 413.3 L 1050.0 414.4 L 1060.0 415.0 L 1070.0 414.9 L 1080.0 414.2 L 1090.0 412.9 L 1100.0 411.0 L 1110.0 408.6 L 1120.0 405.7 L 1130.0 402.2 L 1140.0 398.3 L 1150.0 393.9 L 1160.0 389.2 L 1170.0 384.2 L 1180.0 378.9 L 1190.0 373.4 L 1200.0 367.8 L 1200.0 367.8" fill="none" stroke="#9fe3ea" stroke-opacity="0.1" stroke-width="1.4"/>
<path d="M 0.0 528.0 L 10.0 538.0 L 20.0 546.4 L 30.0 552.9 L 40.0 557.4 L 50.0 559.7 L 60.0 559.8 L 70.0 557.7 L 80.0 553.4 L 90.0 547.1 L 100.0 538.8 L 110.0 528.9 L 120.0 517.6 L 130.0 505.0 L 140.0 491.6 L 150.0 477.7 L 160.0 463.6 L 170.0 449.6 L 180.0 436.1 L 190.0 423.5 L 200.0 412.0 L 210.0 402.0 L 220.0 393.6 L 230.0 387.1 L 240.0 382.6 L 250.0 380.3 L 260.0 380.2 L 270.0 382.3 L 280.0 386.6 L 290.0 392.9 L 300.0 401.2 L 310.0 411.1 L 320.0 422.4 L 330.0 435.0 L 340.0 448.4 L 350.0 462.3 L 360.0 476.4 L 370.0 490.4 L 380.0 503.9 L 390.0 516.5 L 400.0 528.0 L 410.0 538.0 L 420.0 546.4 L 430.0 552.9 L 440.0 557.4 L 450.0 559.7 L 460.0 559.8 L 470.0 557.7 L 480.0 553.4 L 490.0 547.1 L 500.0 538.8 L 510.0 528.9 L 520.0 517.6 L 530.0 505.0 L 540.0 491.6 L 550.0 477.7 L 560.0 463.6 L 570.0 449.6 L 580.0 436.1 L 590.0 423.5 L 600.0 412.0 L 610.0 402.0 L 620.0 393.6 L 630.0 387.1 L 640.0 382.6 L 650.0 380.3 L 660.0 380.2 L 670.0 382.3 L 680.0 386.6 L 690.0 392.9 L 700.0 401.2 L 710.0 411.1 L 720.0 422.4 L 730.0 435.0 L 740.0 448.4 L 750.0 462.3 L 760.0 476.4 L 770.0 490.4 L 780.0 503.9 L 790.0 516.5 L 800.0 528.0 L 810.0 538.0 L 820.0 546.4 L 830.0 552.9 L 840.0 557.4 L 850.0 559.7 L 860.0 559.8 L 870.0 557.7 L 880.0 553.4 L 890.0 547.1 L 900.0 538.8 L 910.0 528.9 L 920.0 517.6 L 930.0 505.0 L 940.0 491.6 L 950.0 477.7 L 960.0 463.6 L 970.0 449.6 L 980.0 436.1 L 990.0 423.5 L 1000.0 412.0 L 1010.0 402.0 L 1020.0 393.6 L 1030.0 387.1 L 1040.0 382.6 L 1050.0 380.3 L 1060.0 380.2 L 1070.0 382.3 L 1080.0 386.6 L 1090.0 392.9 L 1100.0 401.2 L 1110.0 411.1 L 1120.0 422.4 L 1130.0 435.0 L 1140.0 448.4 L 1150.0 462.3 L 1160.0 476.4 L 1170.0 490.4 L 1180.0 503.9 L 1190.0 516.5 L 1200.0 528.0 L 1200.0 528.0" fill="none" stroke="#dff4f7" stroke-opacity="0.13" stroke-width="1.4"/>
<path d="M 0.0 647.3 L 10.0 641.6 L 20.0 635.5 L 30.0 629.0 L 40.0 622.2 L 50.0 615.1 L 60.0 607.9 L 70.0 600.6 L 80.0 593.3 L 90.0 586.0 L 100.0 578.9 L 110.0 572.1 L 120.0 565.5 L 130.0 559.3 L 140.0 553.6 L 150.0 548.4 L 160.0 543.7 L 170.0 539.7 L 180.0 536.3 L 190.0 533.6 L 200.0 531.7 L 210.0 530.4 L 220.0 530.0 L 230.0 530.3 L 240.0 531.4 L 250.0 533.2 L 260.0 535.8 L 270.0 539.1 L 280.0 543.0 L 290.0 547.6 L 300.0 552.7 L 310.0 558.4 L 320.0 564.5 L 330.0 571.0 L 340.0 577.8 L 350.0 584.9 L 360.0 592.1 L 370.0 599.4 L 380.0 606.7 L 390.0 614.0 L 400.0 621.1 L 410.0 627.9 L 420.0 634.5 L 430.0 640.7 L 440.0 646.4 L 450.0 651.6 L 460.0 656.3 L 470.0 660.3 L 480.0 663.7 L 490.0 666.4 L 500.0 668.3 L 510.0 669.6 L 520.0 670.0 L 530.0 669.7 L 540.0 668.6 L 550.0 666.8 L 560.0 664.2 L 570.0 660.9 L 580.0 657.0 L 590.0 652.4 L 600.0 647.3 L 610.0 641.6 L 620.0 635.5 L 630.0 629.0 L 640.0 622.2 L 650.0 615.1 L 660.0 607.9 L 670.0 600.6 L 680.0 593.3 L 690.0 586.0 L 700.0 578.9 L 710.0 572.1 L 720.0 565.5 L 730.0 559.3 L 740.0 553.6 L 750.0 548.4 L 760.0 543.7 L 770.0 539.7 L 780.0 536.3 L 790.0 533.6 L 800.0 531.7 L 810.0 530.4 L 820.0 530.0 L 830.0 530.3 L 840.0 531.4 L 850.0 533.2 L 860.0 535.8 L 870.0 539.1 L 880.0 543.0 L 890.0 547.6 L 900.0 552.7 L 910.0 558.4 L 920.0 564.5 L 930.0 571.0 L 940.0 577.8 L 950.0 584.9 L 960.0 592.1 L 970.0 599.4 L 980.0 606.7 L 990.0 614.0 L 1000.0 621.1 L 1010.0 627.9 L 1020.0 634.5 L 1030.0 640.7 L 1040.0 646.4 L 1050.0 651.6 L 1060.0 656.3 L 1070.0 660.3 L 1080.0 663.7 L 1090.0 666.4 L 1100.0 668.3 L 1110.0 669.6 L 1120.0 670.0 L 1130.0 669.7 L 1140.0 668.6 L 1150.0 666.8 L 1160.0 664.2 L 1170.0 660.9 L 1180.0 657.0 L 1190.0 652.4 L 1200.0 647.3 L 1200.0 647.3" fill="none" stroke="#57cdda" stroke-opacity="0.16" stroke-width="1.4"/>
<path d="M 0.0 667.7 L 10.0 663.7 L 20.0 661.2 L 30.0 660.1 L 40.0 660.4 L 50.0 662.2 L 60.0 665.5 L 70.0 670.0 L 80.0 675.9 L 90.0 682.8 L 100.0 690.6 L 110.0 699.1 L 120.0 708.2 L 130.0 717.5 L 140.0 726.9 L 150.0 736.2 L 160.0 745.0 L 170.0 753.2 L 180.0 760.6 L 190.0 767.0 L 200.0 772.3 L 210.0 776.3 L 220.0 778.8 L 230.0 779.9 L 240.0 779.6 L 250.0 777.8 L 260.0 774.5 L 270.0 770.0 L 280.0 764.1 L 290.0 757.2 L 300.0 749.4 L 310.0 740.9 L 320.0 731.8 L 330.0 722.5 L 340.0 713.1 L 350.0 703.8 L 360.0 695.0 L 370.0 686.8 L 380.0 679.4 L 390.0 673.0 L 400.0 667.7 L 410.0 663.7 L 420.0 661.2 L 430.0 660.1 L 440.0 660.4 L 450.0 662.2 L 460.0 665.5 L 470.0 670.0 L 480.0 675.9 L 490.0 682.8 L 500.0 690.6 L 510.0 699.1 L 520.0 708.2 L 530.0 717.5 L 540.0 726.9 L 550.0 736.2 L 560.0 745.0 L 570.0 753.2 L 580.0 760.6 L 590.0 767.0 L 600.0 772.3 L 610.0 776.3 L 620.0 778.8 L 630.0 779.9 L 640.0 779.6 L 650.0 777.8 L 660.0 774.5 L 670.0 770.0 L 680.0 764.1 L 690.0 757.2 L 700.0 749.4 L 710.0 740.9 L 720.0 731.8 L 730.0 722.5 L 740.0 713.1 L 750.0 703.8 L 760.0 695.0 L 770.0 686.8 L 780.0 679.4 L 790.0 673.0 L 800.0 667.7 L 810.0 663.7 L 820.0 661.2 L 830.0 660.1 L 840.0 660.4 L 850.0 662.2 L 860.0 665.5 L 870.0 670.0 L 880.0 675.9 L 890.0 682.8 L 900.0 690.6 L 910.0 699.1 L 920.0 708.2 L 930.0 717.5 L 940.0 726.9 L 950.0 736.2 L 960.0 745.0 L 970.0 753.2 L 980.0 760.6 L 990.0 767.0 L 1000.0 772.3 L 1010.0 776.3 L 1020.0 778.8 L 1030.0 779.9 L 1040.0 779.6 L 1050.0 777.8 L 1060.0 774.5 L 1070.0 770.0 L 1080.0 764.1 L 1090.0 757.2 L 1100.0 749.4 L 1110.0 740.9 L 1120.0 731.8 L 1130.0 722.5 L 1140.0 713.1 L 1150.0 703.8 L 1160.0 695.0 L 1170.0 686.8 L 1180.0 679.4 L 1190.0 673.0 L 1200.0 667.7 L 1200.0 667.7" fill="none" stroke="#9fe3ea" stroke-opacity="0.11" stroke-width="1.4"/>
<path d="M 0.0 920.0 L 10.0 919.3 L 20.0 917.7 L 30.0 915.3 L 40.0 912.1 L 50.0 908.1 L 60.0 903.3 L 70.0 897.9 L 80.0 891.8 L 90.0 885.1 L 100.0 878.0 L 110.0 870.4 L 120.0 862.5 L 130.0 854.3 L 140.0 846.0 L 150.0 837.7 L 160.0 829.3 L 170.0 821.1 L 180.0 813.1 L 190.0 805.3 L 200.0 798.0 L 210.0 791.1 L 220.0 784.8 L 230.0 779.0 L 240.0 773.9 L 250.0 769.6 L 260.0 766.0 L 270.0 763.2 L 280.0 761.3 L 290.0 760.2 L 300.0 760.0 L 310.0 760.7 L 320.0 762.3 L 330.0 764.7 L 340.0 767.9 L 350.0 771.9 L 360.0 776.7 L 370.0 782.1 L 380.0 788.2 L 390.0 794.9 L 400.0 802.0 L 410.0 809.6 L 420.0 817.5 L 430.0 825.7 L 440.0 834.0 L 450.0 842.3 L 460.0 850.7 L 470.0 858.9 L 480.0 866.9 L 490.0 874.7 L 500.0 882.0 L 510.0 888.9 L 520.0 895.2 L 530.0 901.0 L 540.0 906.1 L 550.0 910.4 L 560.0 914.0 L 570.0 916.8 L 580.0 918.7 L 590.0 919.8 L 600.0 920.0 L 610.0 919.3 L 620.0 917.7 L 630.0 915.3 L 640.0 912.1 L 650.0 908.1 L 660.0 903.3 L 670.0 897.9 L 680.0 891.8 L 690.0 885.1 L 700.0 878.0 L 710.0 870.4 L 720.0 862.5 L 730.0 854.3 L 740.0 846.0 L 750.0 837.7 L 760.0 829.3 L 770.0 821.1 L 780.0 813.1 L 790.0 805.3 L 800.0 798.0 L 810.0 791.1 L 820.0 784.8 L 830.0 779.0 L 840.0 773.9 L 850.0 769.6 L 860.0 766.0 L 870.0 763.2 L 880.0 761.3 L 890.0 760.2 L 900.0 760.0 L 910.0 760.7 L 920.0 762.3 L 930.0 764.7 L 940.0 767.9 L 950.0 771.9 L 960.0 776.7 L 970.0 782.1 L 980.0 788.2 L 990.0 794.9 L 1000.0 802.0 L 1010.0 809.6 L 1020.0 817.5 L 1030.0 825.7 L 1040.0 834.0 L 1050.0 842.3 L 1060.0 850.7 L 1070.0 858.9 L 1080.0 866.9 L 1090.0 874.7 L 1100.0 882.0 L 1110.0 888.9 L 1120.0 895.2 L 1130.0 901.0 L 1140.0 906.1 L 1150.0 910.4 L 1160.0 914.0 L 1170.0 916.8 L 1180.0 918.7 L 1190.0 919.8 L 1200.0 920.0 L 1200.0 920.0" fill="none" stroke="#bfe9ef" stroke-opacity="0.1" stroke-width="1.4"/>
</svg>