<svg xmlns="http://www.w3.org/2000/svg" width="1080" height="1920" viewBox="0 0 1080 1920" preserveAspectRatio="xMidYMid slice">
<path d="M 120.0 0.0 L 125.9 20.0 L 131.7 40.0 L 137.6 60.0 L 143.3 80.0 L 148.9 100.0 L 154.4 120.0 L 159.8 140.0 L 165.0 160.0 L 170.0 180.0 L 174.8 200.0 L 179.3 220.0 L 183.6 240.0 L 187.7 260.0 L 191.4 280.0 L 194.8 300.0 L 197.9 320.0 L 200.7 340.0 L 203.1 360.0 L 205.2 380.0 L 206.9 400.0 L 208.3 420.0 L 209.2 440.0 L 209.8 460.0 L 210.0 480.0 L 209.8 500.0 L 209.2 520.0 L 208.3 540.0 L 206.9 560.0 L 205.2 580.0 L 203.1 600.0 L 200.7 620.0 L 197.9 640.0 L 194.8 660.0 L 191.4 680.0 L 187.7 700.0 L 183.6 720.0 L 179.3 740.0 L 174.8 760.0 L 170.0 780.0 L 165.0 800.0 L 159.8 820.0 L 154.4 840.0 L 148.9 860.0 L 143.3 880.0 L 137.6 900.0 L 131.7 920.0 L 125.9 940.0 L 120.0 960.0 L 114.1 980.0 L 108.3 1000.0 L 102.4 1020.0 L 96.7 1040.0 L 91.1 1060.0 L 85.6 1080.0 L 80.2 1100.0 L 75.0 1120.0 L 70.0 1140.0 L 65.2 1160.0 L 60.7 1180.0 L 56.4 1200.0 L 52.3 1220.0 L 48.6 1240.0 L 45.2 1260.0 L 42.1 1280.0 L 39.3 1300.0 L 36.9 1320.0 L 34.8 1340.0 L 33.1 1360.0 L 31.7 1380.0 L 30.8 1400.0 L 30.2 1420.0 L 30.0 1440.0 L 30.2 1460.0 L 30.8 1480.0 L 31.7 1500.0 L 33.1 1520.0 L 34.8 1540.0 L 36.9 1560.0 L 39.3 1580.0 L 42.1 1600.0 L 45.2 1620.0 L 48.6 1640.0 L 52.3 1660.0 L 56.4 1680.0 L 60.7 1700.0 L 65.2 1720.0 L 70.0 1740.0 L 75.0 1760.0 L 80.2 1780.0 L 85.6 1800.0 L 91.1 1820.0 L 96.7 1840.0 L 102.4 1860.0 L 108.3 1880.0 L 114.1 1900.0 L 120.0 1920.0 " fill="none" stroke="#57cdda" stroke-width="3.0" stroke-opacity="0.1" stroke-linecap="round"/>
<path d="M 415.9 0.0 L 419.5 20.0 L 422.6 40.0 L 425.1 60.0 L 427.2 80.0 L 428.7 100.0 L 429.6 120.0 L 430.0 140.0 L 429.8 160.0 L 429.1 180.0 L 427.8 200.0 L 426.0 220.0 L 423.6 240.0 L 420.7 260.0 L 417.3 280.0 L 413.4 300.0 L 409.0 320.0 L 404.1 340.0 L 398.8 360.0 L 393.1 380.0 L 386.9 400.0 L 380.4 420.0 L 373.6 440.0 L 366.4 460.0 L 359.0 480.0 L 351.3 500.0 L 343.3 520.0 L 335.2 540.0 L 327.0 560.0 L 318.6 580.0 L 310.1 600.0 L 301.6 620.0 L 293.1 640.0 L 284.7 660.0 L 276.3 680.0 L 267.9 700.0 L 259.8 720.0 L 251.8 740.0 L 244.0 760.0 L 236.4 780.0 L 229.1 800.0 L 222.2 820.0 L 215.5 840.0 L 209.2 860.0 L 203.4 880.0 L 197.9 900.0 L 192.8 920.0 L 188.2 940.0 L 184.1 960.0 L 180.5 980.0 L 177.4 1000.0 L 174.9 1020.0 L 172.8 1040.0 L 171.3 1060.0 L 170.4 1080.0 L 170.0 1100.0 L 170.2 1120.0 L 170.9 1140.0 L 172.2 1160.0 L 174.0 1180.0 L 176.4 1200.0 L 179.3 1220.0 L 182.7 1240.0 L 186.6 1260.0 L 191.0 1280.0 L 195.9 1300.0 L 201.2 1320.0 L 206.9 1340.0 L 213.1 1360.0 L 219.6 1380.0 L 226.4 1400.0 L 233.6 1420.0 L 241.0 1440.0 L 248.7 1460.0 L 256.7 1480.0 L 264.8 1500.0 L 273.0 1520.0 L 281.4 1540.0 L 289.9 1560.0 L 298.4 1580.0 L 306.9 1600.0 L 315.3 1620.0 L 323.7 1640.0 L 332.1 1660.0 L 340.2 1680.0 L 348.2 1700.0 L 356.0 1720.0 L 363.6 1740.0 L 370.9 1760.0 L 377.8 1780.0 L 384.5 1800.0 L 390.8 1820.0 L 396.6 1840.0 L 402.1 1860.0 L 407.2 1880.0 L 411.8 1900.0 L 415.9 1920.0 " fill="none" stroke="#8aa0d8" stroke-width="2.4" stroke-opacity="0.07" stroke-linecap="round"/>
<path d="M 562.8 0.0 L 575.7 20.0 L 587.6 40.0 L 598.3 60.0 L 607.8 80.0 L 615.7 100.0 L 621.9 120.0 L 626.5 140.0 L 629.2 160.0 L 630.0 180.0 L 629.0 200.0 L 626.0 220.0 L 621.3 240.0 L 614.9 260.0 L 606.8 280.0 L 597.2 300.0 L 586.3 320.0 L 574.3 340.0 L 561.4 360.0 L 547.7 380.0 L 533.6 400.0 L 519.2 420.0 L 504.8 440.0 L 490.8 460.0 L 477.2 480.0 L 464.3 500.0 L 452.4 520.0 L 441.7 540.0 L 432.2 560.0 L 424.3 580.0 L 418.1 600.0 L 413.5 620.0 L 410.8 640.0 L 410.0 660.0 L 411.0 680.0 L 414.0 700.0 L 418.7 720.0 L 425.1 740.0 L 433.2 760.0 L 442.8 780.0 L 453.7 800.0 L 465.7 820.0 L 478.6 840.0 L 492.3 860.0 L 506.4 880.0 L 520.8 900.0 L 535.2 920.0 L 549.2 940.0 L 562.8 960.0 L 575.7 980.0 L 587.6 1000.0 L 598.3 1020.0 L 607.8 1040.0 L 615.7 1060.0 L 621.9 1080.0 L 626.5 1100.0 L 629.2 1120.0 L 630.0 1140.0 L 629.0 1160.0 L 626.0 1180.0 L 621.3 1200.0 L 614.9 1220.0 L 606.8 1240.0 L 597.2 1260.0 L 586.3 1280.0 L 574.3 1300.0 L 561.4 1320.0 L 547.7 1340.0 L 533.6 1360.0 L 519.2 1380.0 L 504.8 1400.0 L 490.8 1420.0 L 477.2 1440.0 L 464.3 1460.0 L 452.4 1480.0 L 441.7 1500.0 L 432.2 1520.0 L 424.3 1540.0 L 418.1 1560.0 L 413.5 1580.0 L 410.8 1600.0 L 410.0 1620.0 L 411.0 1640.0 L 414.0 1660.0 L 418.7 1680.0 L 425.1 1700.0 L 433.2 1720.0 L 442.8 1740.0 L 453.7 1760.0 L 465.7 1780.0 L 478.6 1800.0 L 492.3 1820.0 L 506.4 1840.0 L 520.8 1860.0 L 535.2 1880.0 L 549.2 1900.0 L 562.8 1920.0 " fill="none" stroke="#57cdda" stroke-width="2.2" stroke-opacity="0.06" stroke-linecap="round"/>
<path d="M 821.3 0.0 L 815.2 20.0 L 808.7 40.0 L 801.7 60.0 L 794.3 80.0 L 786.5 100.0 L 778.3 120.0 L 769.7 140.0 L 760.9 160.0 L 751.8 180.0 L 742.5 200.0 L 733.0 220.0 L 723.3 240.0 L 713.6 260.0 L 703.8 280.0 L 694.0 300.0 L 684.2 320.0 L 674.5 340.0 L 664.9 360.0 L 655.4 380.0 L 646.1 400.0 L 637.1 420.0 L 628.3 440.0 L 619.8 460.0 L 611.7 480.0 L 604.0 500.0 L 596.7 520.0 L 589.8 540.0 L 583.3 560.0 L 577.4 580.0 L 572.0 600.0 L 567.2 620.0 L 562.9 640.0 L 559.2 660.0 L 556.1 680.0 L 553.7 700.0 L 551.8 720.0 L 550.6 740.0 L 550.0 760.0 L 550.1 780.0 L 550.8 800.0 L 552.2 820.0 L 554.2 840.0 L 556.8 860.0 L 560.0 880.0 L 563.8 900.0 L 568.2 920.0 L 573.2 940.0 L 578.7 960.0 L 584.8 980.0 L 591.3 1000.0 L 598.3 1020.0 L 605.7 1040.0 L 613.5 1060.0 L 621.7 1080.0 L 630.3 1100.0 L 639.1 1120.0 L 648.2 1140.0 L 657.5 1160.0 L 667.0 1180.0 L 676.7 1200.0 L 686.4 1220.0 L 696.2 1240.0 L 706.0 1260.0 L 715.8 1280.0 L 725.5 1300.0 L 735.1 1320.0 L 744.6 1340.0 L 753.9 1360.0 L 762.9 1380.0 L 771.7 1400.0 L 780.2 1420.0 L 788.3 1440.0 L 796.0 1460.0 L 803.3 1480.0 L 810.2 1500.0 L 816.7 1520.0 L 822.6 1540.0 L 828.0 1560.0 L 832.8 1580.0 L 837.1 1600.0 L 840.8 1620.0 L 843.9 1640.0 L 846.3 1660.0 L 848.2 1680.0 L 849.4 1700.0 L 850.0 1720.0 L 849.9 1740.0 L 849.2 1760.0 L 847.8 1780.0 L 845.8 1800.0 L 843.2 1820.0 L 840.0 1840.0 L 836.2 1860.0 L 831.8 1880.0 L 826.8 1900.0 L 821.3 1920.0 " fill="none" stroke="#9fb3e6" stroke-width="3.0" stroke-opacity="0.08" stroke-linecap="round"/>
<path d="M 951.7 0.0 L 960.2 20.0 L 967.3 40.0 L 972.9 60.0 L 977.0 80.0 L 979.3 100.0 L 980.0 120.0 L 978.9 140.0 L 976.2 160.0 L 971.8 180.0 L 965.9 200.0 L 958.4 220.0 L 949.7 240.0 L 939.7 260.0 L 928.7 280.0 L 916.9 300.0 L 904.5 320.0 L 891.6 340.0 L 878.5 360.0 L 865.5 380.0 L 852.7 400.0 L 840.4 420.0 L 828.7 440.0 L 818.0 460.0 L 808.3 480.0 L 799.8 500.0 L 792.7 520.0 L 787.1 540.0 L 783.0 560.0 L 780.7 580.0 L 780.0 600.0 L 781.1 620.0 L 783.8 640.0 L 788.2 660.0 L 794.1 680.0 L 801.6 700.0 L 810.3 720.0 L 820.3 740.0 L 831.3 760.0 L 843.1 780.0 L 855.5 800.0 L 868.4 820.0 L 881.5 840.0 L 894.5 860.0 L 907.3 880.0 L 919.6 900.0 L 931.3 920.0 L 942.0 940.0 L 951.7 960.0 L 960.2 980.0 L 967.3 1000.0 L 972.9 1020.0 L 977.0 1040.0 L 979.3 1060.0 L 980.0 1080.0 L 978.9 1100.0 L 976.2 1120.0 L 971.8 1140.0 L 965.9 1160.0 L 958.4 1180.0 L 949.7 1200.0 L 939.7 1220.0 L 928.7 1240.0 L 916.9 1260.0 L 904.5 1280.0 L 891.6 1300.0 L 878.5 1320.0 L 865.5 1340.0 L 852.7 1360.0 L 840.4 1380.0 L 828.7 1400.0 L 818.0 1420.0 L 808.3 1440.0 L 799.8 1460.0 L 792.7 1480.0 L 787.1 1500.0 L 783.0 1520.0 L 780.7 1540.0 L 780.0 1560.0 L 781.1 1580.0 L 783.8 1600.0 L 788.2 1620.0 L 794.1 1640.0 L 801.6 1660.0 L 810.3 1680.0 L 820.3 1700.0 L 831.3 1720.0 L 843.1 1740.0 L 855.5 1760.0 L 868.4 1780.0 L 881.5 1800.0 L 894.5 1820.0 L 907.3 1840.0 L 919.6 1860.0 L 931.3 1880.0 L 942.0 1900.0 L 951.7 1920.0 " fill="none" stroke="#57cdda" stroke-width="2.0" stroke-opacity="0.05" stroke-linecap="round"/>
<path d="M 999.8 0.0 L 990.6 20.0 L 981.5 40.0 L 972.3 60.0 L 963.2 80.0 L 954.2 100.0 L 945.2 120.0 L 936.4 140.0 L 927.8 160.0 L 919.4 180.0 L 911.3 200.0 L 903.5 220.0 L 896.0 240.0 L 888.8 260.0 L 882.1 280.0 L 875.7 300.0 L 869.8 320.0 L 864.4 340.0 L 859.5 360.0 L 855.1 380.0 L 851.2 400.0 L 847.9 420.0 L 845.2 440.0 L 843.0 460.0 L 841.4 480.0 L 840.4 500.0 L 840.0 520.0 L 840.2 540.0 L 841.0 560.0 L 842.4 580.0 L 844.4 600.0 L 847.0 620.0 L 850.1 640.0 L 853.8 660.0 L 858.0 680.0 L 862.8 700.0 L 868.0 720.0 L 873.8 740.0 L 880.0 760.0 L 886.6 780.0 L 893.6 800.0 L 901.0 820.0 L 908.7 840.0 L 916.7 860.0 L 925.0 880.0 L 933.6 900.0 L 942.3 920.0 L 951.2 940.0 L 960.2 960.0 L 969.4 980.0 L 978.5 1000.0 L 987.7 1020.0 L 996.8 1040.0 L 1005.8 1060.0 L 1014.8 1080.0 L 1023.6 1100.0 L 1032.2 1120.0 L 1040.6 1140.0 L 1048.7 1160.0 L 1056.5 1180.0 L 1064.0 1200.0 L 1071.2 1220.0 L 1077.9 1240.0 L 1084.3 1260.0 L 1090.2 1280.0 L 1095.6 1300.0 L 1100.5 1320.0 L 1104.9 1340.0 L 1108.8 1360.0 L 1112.1 1380.0 L 1114.8 1400.0 L 1117.0 1420.0 L 1118.6 1440.0 L 1119.6 1460.0 L 1120.0 1480.0 L 1119.8 1500.0 L 1119.0 1520.0 L 1117.6 1540.0 L 1115.6 1560.0 L 1113.0 1580.0 L 1109.9 1600.0 L 1106.2 1620.0 L 1102.0 1640.0 L 1097.2 1660.0 L 1092.0 1680.0 L 1086.2 1700.0 L 1080.0 1720.0 L 1073.4 1740.0 L 1066.4 1760.0 L 1059.0 1780.0 L 1051.3 1800.0 L 1043.3 1820.0 L 1035.0 1840.0 L 1026.4 1860.0 L 1017.7 1880.0 L 1008.8 1900.0 L 999.8 1920.0 " fill="none" stroke="#7f93cf" stroke-width="2.6" stroke-opacity="0.07" stroke-linecap="round"/>
<path d="M 179.0 0.0 L 176.0 20.0 L 170.9 40.0 L 164.0 60.0 L 155.3 80.0 L 145.0 100.0 L 133.2 120.0 L 120.2 140.0 L 106.1 160.0 L 91.3 180.0 L 75.9 200.0 L 60.2 220.0 L 44.5 240.0 L 29.1 260.0 L 14.3 280.0 L 0.2 300.0 L -12.9 320.0 L -24.7 340.0 L -35.1 360.0 L -43.8 380.0 L -50.8 400.0 L -55.9 420.0 L -58.9 440.0 L -60.0 460.0 L -59.0 480.0 L -56.0 500.0 L -50.9 520.0 L -44.0 540.0 L -35.3 560.0 L -25.0 580.0 L -13.2 600.0 L -0.2 620.0 L 13.9 640.0 L 28.7 660.0 L 44.1 680.0 L 59.8 700.0 L 75.5 720.0 L 90.9 740.0 L 105.7 760.0 L 119.8 780.0 L 132.9 800.0 L 144.7 820.0 L 155.1 840.0 L 163.8 860.0 L 170.8 880.0 L 175.9 900.0 L 178.9 920.0 L 180.0 940.0 L 179.0 960.0 L 176.0 980.0 L 170.9 1000.0 L 164.0 1020.0 L 155.3 1040.0 L 145.0 1060.0 L 133.2 1080.0 L 120.2 1100.0 L 106.1 1120.0 L 91.3 1140.0 L 75.9 1160.0 L 60.2 1180.0 L 44.5 1200.0 L 29.1 1220.0 L 14.3 1240.0 L 0.2 1260.0 L -12.9 1280.0 L -24.7 1300.0 L -35.1 1320.0 L -43.8 1340.0 L -50.8 1360.0 L -55.9 1380.0 L -58.9 1400.0 L -60.0 1420.0 L -59.0 1440.0 L -56.0 1460.0 L -50.9 1480.0 L -44.0 1500.0 L -35.3 1520.0 L -25.0 1540.0 L -13.2 1560.0 L -0.2 1580.0 L 13.9 1600.0 L 28.7 1620.0 L 44.1 1640.0 L 59.8 1660.0 L 75.5 1680.0 L 90.9 1700.0 L 105.7 1720.0 L 119.8 1740.0 L 132.9 1760.0 L 144.7 1780.0 L 155.1 1800.0 L 163.8 1820.0 L 170.8 1840.0 L 175.9 1860.0 L 178.9 1880.0 L 180.0 1900.0 L 179.0 1920.0 " fill="none" stroke="#6fdfe8" stroke-width="1.8" stroke-opacity="0.05" stroke-linecap="round"/>
</svg>