<svg viewBox="0 0 900 1200" xmlns="http://www.w3.org/2000/svg" preserveAspectRatio="xMidYMid slice" role="img" aria-label="Abstract network of nodes">
  <defs>
    <linearGradient id="c2bg" x1="0" y1="0" x2="0.85" y2="1">
      <stop offset="0" stop-color="#141a40"/>
      <stop offset="0.6" stop-color="#262c6b"/>
      <stop offset="1" stop-color="#2a6f80"/>
    </linearGradient>
    <radialGradient id="c2glow" cx="0.28" cy="0.72" r="0.7">
      <stop offset="0" stop-color="#57cdda" stop-opacity="0.34"/>
      <stop offset="1" stop-color="#57cdda" stop-opacity="0"/>
    </radialGradient>
  </defs>

  <rect width="900" height="1200" fill="url(#c2bg)"/>
  <rect width="900" height="1200" fill="url(#c2glow)"/>

  <g stroke="#9fe3ea" stroke-opacity="0.28" stroke-width="1.2">
    <line x1="180" y1="210" x2="470" y2="330"/>
    <line x1="470" y1="330" x2="700" y2="240"/>
    <line x1="470" y1="330" x2="360" y2="600"/>
    <line x1="700" y1="240" x2="760" y2="520"/>
    <line x1="360" y1="600" x2="600" y2="720"/>
    <line x1="360" y1="600" x2="220" y2="850"/>
    <line x1="600" y1="720" x2="760" y2="520"/>
    <line x1="600" y1="720" x2="520" y2="980"/>
    <line x1="220" y1="850" x2="520" y2="980"/>
    <line x1="520" y1="980" x2="720" y2="1040"/>
  </g>

  <g fill="#dff4f7">
    <circle cx="180" cy="210" r="6" fill-opacity="0.85"/>
    <circle cx="470" cy="330" r="9" fill-opacity="0.95"/>
    <circle cx="700" cy="240" r="6.5" fill-opacity="0.85"/>
    <circle cx="760" cy="520" r="5.5" fill-opacity="0.8"/>
    <circle cx="360" cy="600" r="10" fill="#57cdda" fill-opacity="0.95"/>
    <circle cx="600" cy="720" r="7.5" fill-opacity="0.9"/>
    <circle cx="220" cy="850" r="5" fill-opacity="0.75"/>
    <circle cx="520" cy="980" r="8" fill="#57cdda" fill-opacity="0.9"/>
    <circle cx="720" cy="1040" r="5.5" fill-opacity="0.8"/>
  </g>
</svg>
