<svg viewBox="0 0 900 1200" xmlns="http://www.w3.org/2000/svg" preserveAspectRatio="xMidYMid slice" role="img" aria-label="Abstract contour lines">
  <defs>
    <linearGradient id="c1bg" x1="0" y1="0" x2="1" y2="1">
      <stop offset="0" stop-color="#11163a"/>
      <stop offset="0.55" stop-color="#222a63"/>
      <stop offset="1" stop-color="#2f7d8a"/>
    </linearGradient>
    <radialGradient id="c1glow" cx="0.7" cy="0.28" r="0.6">
      <stop offset="0" stop-color="#57cdda" stop-opacity="0.42"/>
      <stop offset="1" stop-color="#57cdda" stop-opacity="0"/>
    </radialGradient>
  </defs>

  <rect width="900" height="1200" fill="url(#c1bg)"/>
  <rect width="900" height="1200" fill="url(#c1glow)"/>

  <g fill="none" stroke="#bfe9ef" stroke-opacity="0.30" stroke-width="1.4">
    <path d="M-40 220 C 200 150, 380 300, 560 250 S 920 120, 1000 200"/>
    <path d="M-40 300 C 200 230, 380 380, 560 330 S 920 200, 1000 280"/>
    <path d="M-40 390 C 200 320, 380 470, 560 420 S 920 290, 1000 370"/>
    <path d="M-40 490 C 200 420, 380 575, 560 520 S 920 385, 1000 470"/>
    <path d="M-40 600 C 200 525, 380 690, 560 630 S 920 490, 1000 580"/>
    <path d="M-40 720 C 200 640, 380 815, 560 750 S 920 605, 1000 700"/>
    <path d="M-40 850 C 200 765, 380 950, 560 880 S 920 730, 1000 830"/>
    <path d="M-40 990 C 200 900, 380 1095, 560 1020 S 920 865, 1000 970"/>
  </g>

  <g fill="#57cdda">
    <circle cx="560" cy="250" r="5" fill-opacity="0.9"/>
    <circle cx="380" cy="470" r="4" fill-opacity="0.7"/>
    <circle cx="640" cy="630" r="4.5" fill-opacity="0.8"/>
    <circle cx="300" cy="815" r="3.5" fill-opacity="0.6"/>
  </g>
</svg>
