<!DOCTYPE svg PUBLIC "-//W3C//DTD SVG 1.1//EN" "http://www.w3.org/Graphics/SVG/1.1/DTD/svg11.dtd">
<!-- Uploaded to: SVG Repo, www.svgrepo.com, Transformed by: SVG Repo Mixer Tools -->
<svg fill="#4abaf2" width="250px" height="250px" viewBox="-25.6 -25.6 307.20 307.20" id="Flat" xmlns="http://www.w3.org/2000/svg" stroke="#4abaf2" stroke-width="2.816" transform="rotate(0)">
<g id="SVGRepo_bgCarrier" stroke-width="0">
<rect x="-25.6" y="-25.6" width="307.20" height="307.20" rx="153.6" fill="#2B3E50" strokewidth="0"/>
</g>
<g id="SVGRepo_tracerCarrier" stroke-linecap="round" stroke-linejoin="round"/>
<g id="SVGRepo_iconCarrier"> <path d="M164,84a43.99983,43.99983,0,0,1-44,44H72V40h48A43.99983,43.99983,0,0,1,164,84Z" opacity="0.2"/> <path d="M183.31348,188l22.34326-22.34326a7.99984,7.99984,0,0,0-11.31348-11.31348L172,176.68652l-41.71289-41.71277A52.0008,52.0008,0,0,0,120,32H72a8.00008,8.00008,0,0,0-8,8V192a8,8,0,0,0,16,0V136h28.68652l52,52-22.34326,22.34326a7.99984,7.99984,0,1,0,11.31348,11.31348L172,199.31348l22.34326,22.34326a7.99984,7.99984,0,0,0,11.31348-11.31348ZM80,48h40a36,36,0,0,1,0,72H80Z"/> </g>
</svg>